<?xml version="1.0" encoding="UTF-8" standalone="no"?>
<svg
   xmlns:dc="http://purl.org/dc/elements/1.1/"
   xmlns:cc="http://creativecommons.org/ns#"
   xmlns:rdf="http://www.w3.org/1999/02/22-rdf-syntax-ns#"
   xmlns:svg="http://www.w3.org/2000/svg"
   xmlns="http://www.w3.org/2000/svg"
   xmlns:sodipodi="http://sodipodi.sourceforge.net/DTD/sodipodi-0.dtd"
   xmlns:inkscape="http://www.inkscape.org/namespaces/inkscape"
   width="149mm"
   height="185mm"
   viewBox="0 0 149 185"
   version="1.1"
   id="svg8"
   inkscape:version="1.0.2 (e86c870879, 2021-01-15)"
   sodipodi:docname="train1.svg">
  <defs
     id="defs2" />
  <sodipodi:namedview
     id="base"
     pagecolor="#ffffff"
     bordercolor="#666666"
     borderopacity="1.0"
     inkscape:pageopacity="0.0"
     inkscape:pageshadow="2"
     inkscape:zoom="0.41262401"
     inkscape:cx="232.25736"
     inkscape:cy="426.67958"
     inkscape:document-units="mm"
     inkscape:current-layer="layer2"
     inkscape:document-rotation="0"
     showgrid="false"
     inkscape:window-width="1366"
     inkscape:window-height="737"
     inkscape:window-x="0"
     inkscape:window-y="31"
     inkscape:window-maximized="0" />
  <metadata
     id="metadata5">
    <rdf:RDF>
      <cc:Work
         rdf:about="">
        <dc:format>image/svg+xml</dc:format>
        <dc:type
           rdf:resource="http://purl.org/dc/dcmitype/StillImage" />
        <dc:title></dc:title>
      </cc:Work>
    </rdf:RDF>
  </metadata>
  <g
     inkscape:label="Layer 1"
     inkscape:groupmode="layer"
     id="layer1"
     style="display:inline" />
  <g
     inkscape:groupmode="layer"
     id="layer2"
     inkscape:label="Layer 2">
    <path
       style="fill:#101010;fill-opacity:1;stroke:#000000;stroke-width:0.461415px;stroke-linecap:butt;stroke-linejoin:miter;stroke-opacity:1"
       d="M 8.3629214,7.0029758 42.067379,37.158553 C 33.805405,19.978582 71.208277,2.2604768 85.278147,27.159644 c 1.19755,2.119321 2.0836,9.308186 2.02172,12.193704 l 40.223443,-13.867462 13.71767,6.569426 -0.68437,29.729899 -10.83493,6.803089 -43.005903,-10.319991 -0.4823,66.912491 c 0,0 32.107913,-11.16867 49.317433,10.72232 l -0.49582,40.6895 -11.5912,1.87109 c -6.19124,2.04485 -36.872703,-39.51015 -71.713643,-6.97892 l -10.213485,-0.0817 0.219292,-18.51954 C 27.79681,163.77893 10.206438,154.37601 9.9116854,139.21004 9.6315764,124.79756 28.064597,111.7963 42.548522,124.56456 L 42.014461,78.589123 C 29.798606,95.990423 8.681638,86.113534 9.281656,69.554734 9.780687,55.783363 27.65364,44.700128 42.555096,62.308511 L 42.228962,47.782408 9.8710624,38.132338 Z"
       id="path2117"
       sodipodi:nodetypes="ccscccccccccccccsccscccc" />
  </g>
</svg>
