<?xml version="1.0" encoding="UTF-8" standalone="no"?>
<svg
   xmlns:dc="http://purl.org/dc/elements/1.1/"
   xmlns:cc="http://creativecommons.org/ns#"
   xmlns:rdf="http://www.w3.org/1999/02/22-rdf-syntax-ns#"
   xmlns:svg="http://www.w3.org/2000/svg"
   xmlns="http://www.w3.org/2000/svg"
   xmlns:sodipodi="http://sodipodi.sourceforge.net/DTD/sodipodi-0.dtd"
   xmlns:inkscape="http://www.inkscape.org/namespaces/inkscape"
   width="185mm"
   height="149mm"
   viewBox="0 0 185 149"
   version="1.1"
   id="svg8"
   inkscape:version="1.0.2 (e86c870879, 2021-01-15)"
   sodipodi:docname="train.png.svg">
  <defs
     id="defs2" />
  <sodipodi:namedview
     id="base"
     pagecolor="#ffffff"
     bordercolor="#666666"
     borderopacity="1.0"
     inkscape:pageopacity="0.0"
     inkscape:pageshadow="2"
     inkscape:zoom="0.40012025"
     inkscape:cx="608.60491"
     inkscape:cy="316.25724"
     inkscape:document-units="mm"
     inkscape:current-layer="layer2"
     inkscape:document-rotation="0"
     showgrid="false"
     inkscape:window-width="1622"
     inkscape:window-height="737"
     inkscape:window-x="0"
     inkscape:window-y="31"
     inkscape:window-maximized="0"
     units="mm"
     width="209mm" />
  <metadata
     id="metadata5">
    <rdf:RDF>
      <cc:Work
         rdf:about="">
        <dc:format>image/svg+xml</dc:format>
        <dc:type
           rdf:resource="http://purl.org/dc/dcmitype/StillImage" />
        <dc:title></dc:title>
      </cc:Work>
    </rdf:RDF>
  </metadata>
  <g
     inkscape:label="Layer 1"
     inkscape:groupmode="layer"
     id="layer1"
     style="display:inline" />
  <g
     inkscape:groupmode="layer"
     id="layer2"
     inkscape:label="Layer 2">
    <g
       id="g841"
       transform="translate(1.5585448,-1.6810578)">
      <path
         style="fill:#101010;fill-opacity:1;stroke:#000000;stroke-width:0.460465px;stroke-linecap:butt;stroke-linejoin:miter;stroke-opacity:1"
         d="M 6.3890581,138.06165 36.623445,104.57919 C 19.449668,112.73151 1.9525051,75.28616 26.852466,61.378434 28.971839,60.194674 36.146101,59.35056 39.023812,59.428617 L 25.380404,19.188768 31.9968,5.5292457 l 29.649176,0.85112 6.734733,10.8566633 -10.493978,42.881518 66.735729,0.859166 c 0,0 -17.79816,-31.540726 4.11613,-48.600237 l 47.3897,0.143813 1.81206,11.583919 c 2.01057,6.193283 -39.57937,36.593063 -7.29575,71.564025 l -0.12912,10.197307 c -64.8614,-0.5082 -69.19655,-0.516 -123.295075,-1.38876 l -9.776058,32.25371 z"
         id="path2117"
         sodipodi:nodetypes="ccsccccccccccccccc" />
      <circle
         style="opacity:0.999;fill:#101010;fill-opacity:1;stroke:#000000;stroke-width:0;stroke-miterlimit:4;stroke-dasharray:none"
         id="path832"
         sodipodi:type="arc"
         sodipodi:cx="77.885834"
         sodipodi:cy="117.10089"
         sodipodi:rx="17.611336"
         sodipodi:ry="17.990353"
         sodipodi:start="5.2018666"
         sodipodi:end="5.1967528"
         sodipodi:open="true"
         sodipodi:arc-type="arc"
         d="m 86.166066,101.22299 a 17.611336,17.990353 0 0 1 7.273729,24.31603 17.611336,17.990353 0 0 1 -23.794423,7.46135 17.611336,17.990353 0 0 1 -7.334569,-24.29695 17.611336,17.990353 0 0 1 23.775669,-7.52348" />
      <circle
         style="opacity:0.999;fill:#101010;fill-opacity:1;stroke:#000000;stroke-width:0;stroke-miterlimit:4;stroke-dasharray:none"
         id="circle836"
         sodipodi:type="arc"
         sodipodi:cx="134.67964"
         sodipodi:cy="117.86126"
         sodipodi:rx="17.931862"
         sodipodi:ry="17.714529"
         sodipodi:start="5.2018666"
         sodipodi:end="5.1967528"
         sodipodi:open="true"
         sodipodi:arc-type="arc"
         d="m 143.11057,102.2268 a 17.931862,17.714529 0 0 1 7.40611,23.94321 17.931862,17.714529 0 0 1 -24.22748,7.34696 17.931862,17.714529 0 0 1 -7.46805,-23.92444 17.931862,17.714529 0 0 1 24.20838,-7.40812" />
    </g>
  </g>
</svg>
