<?xml version="1.0" encoding="UTF-8" standalone="no"?>
<svg
   xmlns:dc="http://purl.org/dc/elements/1.1/"
   xmlns:cc="http://creativecommons.org/ns#"
   xmlns:rdf="http://www.w3.org/1999/02/22-rdf-syntax-ns#"
   xmlns:svg="http://www.w3.org/2000/svg"
   xmlns="http://www.w3.org/2000/svg"
   xmlns:sodipodi="http://sodipodi.sourceforge.net/DTD/sodipodi-0.dtd"
   xmlns:inkscape="http://www.inkscape.org/namespaces/inkscape"
   width="185mm"
   height="149mm"
   viewBox="0 0 185 149"
   version="1.1"
   id="svg8"
   inkscape:version="1.0.2 (e86c870879, 2021-01-15)"
   sodipodi:docname="train.svg">
  <defs
     id="defs2" />
  <sodipodi:namedview
     id="base"
     pagecolor="#ffffff"
     bordercolor="#666666"
     borderopacity="1.0"
     inkscape:pageopacity="0.0"
     inkscape:pageshadow="2"
     inkscape:zoom="0.40012025"
     inkscape:cx="477.63724"
     inkscape:cy="308.19196"
     inkscape:document-units="mm"
     inkscape:current-layer="layer2"
     inkscape:document-rotation="0"
     showgrid="false"
     inkscape:window-width="1622"
     inkscape:window-height="737"
     inkscape:window-x="0"
     inkscape:window-y="31"
     inkscape:window-maximized="0"
     units="mm"
     width="209mm" />
  <metadata
     id="metadata5">
    <rdf:RDF>
      <cc:Work
         rdf:about="">
        <dc:format>image/svg+xml</dc:format>
        <dc:type
           rdf:resource="http://purl.org/dc/dcmitype/StillImage" />
        <dc:title></dc:title>
      </cc:Work>
    </rdf:RDF>
  </metadata>
  <g
     inkscape:label="Layer 1"
     inkscape:groupmode="layer"
     id="layer1"
     style="display:inline" />
  <g
     inkscape:groupmode="layer"
     id="layer2"
     inkscape:label="Layer 2">
    <path
       style="fill:#101010;fill-opacity:1;stroke:#000000;stroke-width:0.460465px;stroke-linecap:butt;stroke-linejoin:miter;stroke-opacity:1"
       d="M 4.2815153,138.24656 34.515902,104.7641 C 17.342125,112.91642 -0.15503772,75.47107 24.744923,61.563344 26.864296,60.379584 34.038558,59.53547 36.916269,59.613527 L 23.272861,19.373678 29.889257,5.7141554 l 29.649176,0.85112 6.734733,10.8566636 -10.493978,42.881518 66.735732,0.859166 c 0,0 -17.79816,-31.540726 4.11613,-48.600238 l 47.3897,0.143813 1.81206,11.58392 c 2.01057,6.193283 -39.57937,36.593063 -7.29575,71.564025 l -0.12912,10.197307 -18.47023,-0.32347 c 13.96467,11.55015 2.34951,34.4612 -14.24285,32.91897 -14.58731,-1.35586 -23.68404,-17.65625 -10.88139,-32.04585 l -48.975222,-1.55038 c 17.308987,10.36772 10.97873,32.46656 -6.755383,33.72142 -19.288165,1.36482 -30.260848,-22.49303 -9.480244,-34.35311 l -14.489759,0.24366 -9.776058,32.25371 z"
       id="path2117"
       sodipodi:nodetypes="ccscccccccccccccsccscccc"
       inkscape:transform-center-x="56.547729"
       inkscape:transform-center-y="17.774462" />
  </g>
</svg>
